<?xml version="1.0" encoding="utf-8"?>
<!-- Generator: Adobe Illustrator 16.0.4, SVG Export Plug-In . SVG Version: 6.00 Build 0)  -->
<!DOCTYPE svg PUBLIC "-//W3C//DTD SVG 1.1//EN" "http://www.w3.org/Graphics/SVG/1.1/DTD/svg11.dtd">
<svg version="1.1" id="Layer_1" xmlns="http://www.w3.org/2000/svg" xmlns:xlink="http://www.w3.org/1999/xlink" x="0px" y="0px"
	 width="192px" height="108px" viewBox="0 0 192 108" enable-background="new 0 0 192 108" xml:space="preserve">
<g>
	<path fill="#9DCD5B" d="M101.443,18.259h0.315v-0.032c-1.747-0.69-3.053-2.242-3.397-4.134c2.844-0.983,4.898-3.655,4.898-6.833
		C103.26,3.25,100.009,0,96,0c-4.011,0-7.261,3.25-7.261,7.26c0,3.214,2.103,5.909,4.996,6.864
		c-0.359,1.912-1.704,3.469-3.493,4.135h0.314c-42.01,2.802-75.223,37.745-75.223,80.463h161.333
		C176.666,56.003,143.452,21.061,101.443,18.259z M124.172,79.916c-1.52,0.879-2.951,1.32-4.288,1.32
		c-0.639,0-1.242-0.094-1.8-0.283c-0.563-0.189-1.062-0.479-1.496-0.877c-0.436-0.393-0.795-0.91-1.086-1.537
		c-0.292-0.627-0.494-1.373-0.61-2.236c-0.967,1.65-2.004,3.135-3.114,4.457c-1.11,1.32-2.288,2.447-3.534,3.383
		c-1.246,0.926-2.553,1.648-3.911,2.154c-1.362,0.506-2.77,0.758-4.217,0.758c-1.838,0-3.397-0.486-4.681-1.453
		c-1.284-0.975-2.326-2.291-3.129-3.959c-0.803-1.666-1.384-3.627-1.753-5.875c-0.368-2.248-0.55-4.643-0.55-7.186
		c0-0.926,0.048-1.803,0.146-2.615c0.096-0.812,0.173-1.541,0.231-2.182c-0.699,4.422-1.578,8.117-2.629,11.096
		c-1.059,2.975-2.302,5.367-3.726,7.17c-1.426,1.801-3.055,3.086-4.887,3.854c-1.832,0.764-3.863,1.15-6.093,1.15
		c-1.279,0-2.502-0.424-3.665-1.268c-1.165-0.844-2.187-2.098-3.069-3.766c-0.882-1.67-1.59-3.756-2.122-6.268
		c-0.531-2.514-0.797-5.441-0.797-8.797c0-2.059,0.114-4.164,0.347-6.328c0.235-2.158,0.567-4.326,1.003-6.5
		c0.437-2.172,0.976-4.323,1.615-6.458c0.638-2.131,1.367-4.206,2.182-6.223c0.482-1.124,0.969-2.001,1.454-2.631
		c0.484-0.631,0.978-1.097,1.483-1.398c0.504-0.3,1.013-0.479,1.528-0.538c0.512-0.058,1.032-0.086,1.555-0.086
		c0.425,0,0.814,0.028,1.165,0.088c0.348,0.06,0.644,0.182,0.885,0.37c0.243,0.187,0.427,0.453,0.553,0.799
		c0.127,0.345,0.188,0.811,0.188,1.402c0,0.67-0.159,1.66-0.478,2.972c-0.322,1.308-0.723,2.822-1.208,4.536
		c-0.483,1.715-1.008,3.577-1.569,5.587c-0.565,2.01-1.088,4.051-1.573,6.118c-0.487,2.072-0.887,4.104-1.207,6.104
		c-0.319,2.002-0.479,3.861-0.479,5.572c0,1.398,0.091,2.703,0.275,3.916c0.183,1.213,0.47,2.266,0.859,3.164
		c0.388,0.895,0.87,1.602,1.455,2.115c0.583,0.51,1.269,0.766,2.065,0.766c0.794,0,1.568-0.238,2.312-0.711
		c0.748-0.473,1.471-1.123,2.167-1.949c0.699-0.828,1.371-1.814,2.01-2.959s1.254-2.381,1.848-3.711
		c0.59-1.334,1.148-2.732,1.672-4.201c0.523-1.473,1.018-2.953,1.485-4.453c1.63-5.287,3.074-11.291,4.335-18.014
		c0.236-1.086,0.513-1.992,0.837-2.723c0.323-0.729,0.707-1.31,1.157-1.744c0.449-0.434,0.974-0.739,1.57-0.917
		c0.593-0.176,1.284-0.266,2.062-0.266c0.742,0,1.351,0.068,1.821,0.204c0.477,0.136,0.855,0.321,1.138,0.553
		c0.279,0.232,0.48,0.513,0.595,0.843c0.116,0.329,0.173,0.698,0.173,1.106c0,0.135-0.075,0.702-0.231,1.701
		c-0.154,0.999-0.352,2.279-0.595,3.839c-0.243,1.562-0.506,3.33-0.785,5.307c-0.282,1.979-0.545,4.012-0.786,6.094
		c-0.24,2.084-0.439,4.145-0.595,6.18s-0.234,3.908-0.234,5.611c0,1.746,0.063,3.322,0.188,4.729
		c0.126,1.406,0.34,2.602,0.641,3.592c0.296,0.988,0.689,1.746,1.171,2.27c0.48,0.525,1.08,0.787,1.797,0.787
		c1.231,0,2.358-0.488,3.37-1.457c1.014-0.969,1.942-2.266,2.782-3.881c0.839-1.617,1.59-3.498,2.26-5.629
		c0.665-2.133,1.321-4.916,1.964-8.348c0.65-3.432,0.978-5.145,0.973-5.141c0,0,0.228-1.871,0.679-5.609
		c0.45-3.738,0.759-6.3,0.932-7.69c0.167-1.386,0.299-2.473,0.393-3.26c0.064-0.856,0.259-1.544,0.584-2.066
		c0.325-0.521,0.744-0.925,1.25-1.21c0.503-0.285,1.075-0.474,1.721-0.567c0.644-0.093,1.302-0.139,1.979-0.139
		c0.527,0,1.007,0.05,1.438,0.147c0.435,0.097,0.807,0.267,1.123,0.506c0.315,0.241,0.56,0.56,0.728,0.959
		c0.169,0.401,0.253,0.911,0.253,1.534c0,1.723-0.164,3.618-0.489,5.687c-0.331,2.068-0.747,4.144-1.253,6.229
		c-0.501,2.086-3.312,15.35-3.558,16.542c-0.253,1.193-0.374,1.982-0.374,2.363c0,0.926,0.105,1.717,0.322,2.373
		c0.209,0.654,0.495,1.193,0.854,1.625c0.359,0.43,0.786,0.738,1.282,0.93c0.491,0.189,1.021,0.281,1.584,0.281
		s1.139-0.127,1.729-0.391c0.592-0.262,1.16-0.625,1.704-1.088c0.543-0.469,1.04-1.023,1.497-1.676
		c0.455-0.646,0.836-1.367,1.147-2.166l0.494,5.973C127.174,77.83,125.695,79.035,124.172,79.916z"/>
	<polygon fill="#9DCD5B" points="0.813,101.546 0.813,104.773 7.414,104.773 10.64,108 181.36,108 184.587,104.773 191.187,104.773 
		191.187,101.546 	"/>
</g>
</svg>
