<?xml version="1.0" encoding="utf-8"?>
<!-- Generator: Adobe Illustrator 16.0.4, SVG Export Plug-In . SVG Version: 6.00 Build 0)  -->
<!DOCTYPE svg PUBLIC "-//W3C//DTD SVG 1.1//EN" "http://www.w3.org/Graphics/SVG/1.1/DTD/svg11.dtd">
<svg version="1.1" id="Layer_1" xmlns="http://www.w3.org/2000/svg" xmlns:xlink="http://www.w3.org/1999/xlink" x="0px" y="0px"
	 width="58px" height="108px" viewBox="0 0 58 108" enable-background="new 0 0 58 108" xml:space="preserve">
<path fill="#9DCC5A" d="M48,0H10C4.477,0,0,4.477,0,10v88c0,5.522,4.477,10,10,10h38c5.522,0,10-4.478,10-10V10
	C58,4.477,53.522,0,48,0z M24.5,6.25h9c0.553,0,1,0.448,1,1s-0.447,1-1,1h-9c-0.552,0-1-0.448-1-1S23.948,6.25,24.5,6.25z M29,104
	c-3.038,0-5.5-2.463-5.5-5.5S25.962,93,29,93c3.037,0,5.5,2.463,5.5,5.5S32.037,104,29,104z M56,88c0,0.553-0.447,1-1,1H3
	c-0.552,0-1-0.447-1-1V14c0-0.552,0.448-1,1-1h52c0.553,0,1,0.448,1,1V88z"/>
</svg>
