<?xml version="1.0" encoding="utf-8"?>
<!-- Generator: Adobe Illustrator 16.0.4, SVG Export Plug-In . SVG Version: 6.00 Build 0)  -->
<!DOCTYPE svg PUBLIC "-//W3C//DTD SVG 1.1//EN" "http://www.w3.org/Graphics/SVG/1.1/DTD/svg11.dtd">
<svg version="1.1" id="Layer_1" xmlns="http://www.w3.org/2000/svg" xmlns:xlink="http://www.w3.org/1999/xlink" x="0px" y="0px"
	 width="160.702px" height="108px" viewBox="0 0 160.702 108" enable-background="new 0 0 160.702 108" xml:space="preserve">
<g>
	<path fill="#9DCC5A" d="M54.346,108c-4.761,0-8.598-1.472-11.512-4.418c-2.913-2.951-4.369-6.884-4.369-11.811
		c0-14.848,2.948-25.259,8.846-31.229c3.055-3.056,6.962-4.587,11.724-4.587c0.426,0,1.28,0.448,2.559,1.342
		c2.202,1.494,3.979,2.649,5.329,3.471c1.35,0.821,3.304,1.679,5.863,2.573c2.558,0.897,5.08,1.345,7.566,1.345
		c5.189,0,9.982-1.454,14.388-4.365c0.567-0.374,1.314-0.896,2.239-1.568l2.133-1.455c1.276-0.894,2.13-1.342,2.556-1.342
		c10.517,0,17.018,7.499,19.505,22.499c0.711,4.253,1.066,8.691,1.066,13.317c0,4.927-1.457,8.859-4.37,11.811
		c-2.912,2.946-6.75,4.418-11.511,4.418H54.346z M57.543,36.032c0-6.714,2.203-12.385,6.607-17.013
		c4.477-4.7,9.877-7.051,16.201-7.051c6.254,0,11.617,2.351,16.095,7.051c4.476,4.701,6.714,10.373,6.714,17.013
		c0,6.567-2.238,12.201-6.714,16.902c-4.478,4.701-9.841,7.053-16.095,7.053c-6.324,0-11.724-2.352-16.201-7.053
		C59.746,48.307,57.543,42.674,57.543,36.032z"/>
	<g>
		<path fill="#9DCC5A" d="M106.009,36.03c0,2.517-0.302,4.919-0.894,7.205c3.947,3.17,8.506,4.782,13.699,4.782
			c6.254,0,11.617-2.351,16.096-7.052c4.475-4.701,6.713-10.334,6.713-16.902c0-6.64-2.238-12.312-6.713-17.014
			C130.432,2.35,125.069,0,118.815,0c-6.324,0-11.724,2.35-16.2,7.049c-2.464,2.589-4.211,5.516-5.297,8.756
			c0.382,0.361,0.771,0.707,1.142,1.096C103.47,22.165,106.009,28.599,106.009,36.03z"/>
		<path fill="#9DCC5A" d="M41.887,48.017c5.163,0,9.708-1.628,13.661-4.832c-0.566-2.264-0.854-4.651-0.854-7.156
			c0-7.504,2.504-13.94,7.442-19.127c0.387-0.407,0.793-0.77,1.194-1.146c-1.105-3.196-2.872-6.105-5.349-8.707
			C53.503,2.35,48.14,0,41.887,0c-6.324,0-11.723,2.35-16.201,7.049c-4.404,4.629-6.607,10.3-6.607,17.014
			c0,6.643,2.203,12.275,6.607,16.902C30.164,45.667,35.563,48.017,41.887,48.017z"/>
		<path fill="#9DCC5A" d="M45.334,58.387c3.602-3.602,8.207-5.424,13.7-5.424c0.487,0,0.99,0.105,1.569,0.342
			c-1.399-1.732-2.541-3.59-3.445-5.556c-0.327,0.228-0.629,0.435-0.884,0.603c-4.406,2.91-9.199,4.366-14.388,4.366
			c-2.486,0-5.009-0.448-7.567-1.345c-2.559-0.896-4.512-1.753-5.862-2.574c-1.35-0.821-3.126-1.977-5.329-3.47
			c-1.279-0.894-2.132-1.342-2.558-1.342c-4.762,0-8.669,1.531-11.724,4.587C2.949,54.545,0,64.954,0,79.803
			c0,4.926,1.457,8.859,4.37,11.81c2.914,2.947,6.75,4.419,11.511,4.419h20.097c-0.238-1.35-0.363-2.769-0.363-4.262
			C35.615,76.146,38.885,64.915,45.334,58.387z"/>
		<path fill="#9DCC5A" d="M159.635,66.485c-2.486-15-8.988-22.499-19.505-22.499c-0.426,0-1.279,0.448-2.556,1.342l-2.133,1.456
			c-0.924,0.671-1.672,1.193-2.238,1.567c-4.406,2.91-9.199,4.366-14.389,4.366c-2.487,0-5.009-0.448-7.566-1.345
			c-2.559-0.896-4.512-1.753-5.862-2.574c-0.541-0.329-1.169-0.726-1.846-1.162c-0.936,2.024-2.129,3.938-3.594,5.73
			c0.642-0.28,1.189-0.404,1.72-0.404c15.02,0,20.423,13.582,22.312,24.979c0.735,4.392,1.108,9.045,1.108,13.828
			c0,1.493-0.125,2.912-0.362,4.262h20.097c4.761,0,8.599-1.472,11.512-4.419c2.912-2.95,4.369-6.884,4.369-11.81
			C160.702,75.178,160.347,70.739,159.635,66.485z"/>
	</g>
</g>
</svg>
