<?xml version="1.0" encoding="utf-8"?>
<!-- Generator: Adobe Illustrator 16.0.4, SVG Export Plug-In . SVG Version: 6.00 Build 0)  -->
<!DOCTYPE svg PUBLIC "-//W3C//DTD SVG 1.1//EN" "http://www.w3.org/Graphics/SVG/1.1/DTD/svg11.dtd">
<svg version="1.1" id="Layer_1" xmlns="http://www.w3.org/2000/svg" xmlns:xlink="http://www.w3.org/1999/xlink" x="0px" y="0px"
	 width="280px" height="81px" viewBox="0 0 280 81" enable-background="new 0 0 280 81" xml:space="preserve">
<g>
	<path fill="#834594" d="M15.886,10.621c0,0.75-0.178,1.858-0.537,3.327c-0.358,1.467-0.809,3.161-1.352,5.081
		c-0.543,1.92-1.129,4.005-1.759,6.257c-0.63,2.25-1.216,4.534-1.759,6.851c-0.543,2.317-0.994,4.595-1.352,6.835
		c-0.358,2.24-0.537,4.32-0.537,6.238c0,1.567,0.103,3.029,0.31,4.386c0.206,1.358,0.526,2.537,0.961,3.542
		c0.433,1.004,0.977,1.793,1.628,2.367s1.421,0.859,2.312,0.859c0.891,0,1.754-0.264,2.591-0.794s1.646-1.259,2.428-2.187
		c0.783-0.928,1.532-2.031,2.249-3.312c0.717-1.28,1.407-2.666,2.069-4.156c0.663-1.491,1.288-3.059,1.874-4.705
		c0.586-1.644,1.141-3.306,1.662-4.985c1.825-5.918,3.443-12.642,4.855-20.172c0.263-1.214,0.574-2.23,0.935-3.047
		c0.363-0.816,0.795-1.468,1.298-1.954c0.503-0.486,1.089-0.828,1.756-1.028c0.666-0.198,1.438-0.298,2.313-0.298
		c0.829,0,1.508,0.077,2.04,0.228c0.532,0.153,0.955,0.359,1.271,0.619c0.314,0.261,0.538,0.576,0.668,0.945
		c0.129,0.37,0.194,0.782,0.194,1.238c0,0.152-0.087,0.787-0.261,1.905c-0.174,1.119-0.396,2.551-0.666,4.299
		c-0.274,1.748-0.566,3.729-0.88,5.943c-0.316,2.214-0.61,4.489-0.879,6.823c-0.272,2.334-0.494,4.641-0.668,6.92
		c-0.174,2.28-0.261,4.375-0.261,6.286c0,1.955,0.069,3.719,0.209,5.293c0.141,1.574,0.378,2.915,0.715,4.021
		c0.333,1.107,0.773,1.955,1.313,2.541c0.539,0.586,1.209,0.879,2.01,0.879c1.382,0,2.642-0.542,3.776-1.629
		c1.135-1.086,2.173-2.534,3.115-4.348c0.939-1.812,1.781-3.913,2.529-6.301c0.746-2.389,1.48-5.504,2.204-9.347
		c0.726-3.842,1.089-5.763,1.087-5.76c0,0.002,0.253-2.089,0.76-6.277c0.505-4.188,0.853-7.057,1.042-8.611
		c0.187-1.553,0.333-2.771,0.44-3.651c0.071-0.959,0.29-1.731,0.654-2.314s0.833-1.036,1.398-1.355
		c0.567-0.319,1.208-0.531,1.93-0.635c0.72-0.104,1.458-0.155,2.214-0.155c0.589,0,1.126,0.055,1.611,0.164
		c0.482,0.109,0.902,0.299,1.255,0.567c0.354,0.269,0.626,0.626,0.815,1.075c0.189,0.449,0.283,1.02,0.283,1.717
		c0,1.93-0.183,4.052-0.55,6.368c-0.369,2.316-0.835,4.641-1.4,6.975c-0.563,2.334-3.707,17.188-3.985,18.524
		c-0.28,1.336-0.418,2.217-0.418,2.644c0,1.04,0.118,1.925,0.359,2.659c0.238,0.732,0.557,1.338,0.959,1.819
		c0.401,0.479,0.879,0.826,1.433,1.04c0.553,0.212,1.145,0.318,1.774,0.318s1.275-0.146,1.937-0.439
		c0.663-0.293,1.298-0.7,1.906-1.221c0.608-0.521,1.166-1.146,1.678-1.874c0.51-0.726,0.938-1.534,1.285-2.426l0.554,6.687
		c-1.607,1.712-3.261,3.061-4.967,4.047c-1.703,0.986-3.306,1.48-4.804,1.48c-0.715,0-1.39-0.105-2.017-0.318
		c-0.629-0.21-1.187-0.537-1.673-0.98c-0.488-0.443-0.892-1.018-1.218-1.723c-0.324-0.703-0.552-1.539-0.681-2.506
		c-1.082,1.849-2.244,3.514-3.488,4.992c-1.242,1.48-2.562,2.742-3.958,3.785c-1.394,1.042-2.857,1.847-4.379,2.414
		c-1.525,0.565-3.099,0.848-4.722,0.848c-2.055,0-3.802-0.541-5.241-1.627c-1.438-1.088-2.604-2.562-3.504-4.43
		c-0.897-1.867-1.551-4.061-1.962-6.58c-0.412-2.518-0.616-5.199-0.616-8.045c0-1.041,0.055-2.019,0.162-2.931
		c0.108-0.912,0.196-1.727,0.261-2.442c-0.782,4.949-1.765,9.091-2.947,12.424c-1.184,3.334-2.574,6.009-4.169,8.028
		c-1.596,2.019-3.42,3.458-5.472,4.315c-2.051,0.857-4.326,1.287-6.823,1.287c-1.433,0-2.801-0.473-4.104-1.417
		s-2.449-2.351-3.436-4.218c-0.988-1.867-1.781-4.207-2.377-7.019c-0.595-2.812-0.893-6.095-0.893-9.851
		c0-2.303,0.129-4.664,0.39-7.085c0.261-2.42,0.635-4.847,1.124-7.278c0.488-2.432,1.09-4.842,1.807-7.231
		c0.716-2.387,1.531-4.71,2.443-6.969c0.542-1.259,1.085-2.242,1.628-2.947C8.189,9.2,8.743,8.679,9.308,8.342
		c0.564-0.336,1.134-0.537,1.71-0.603c0.575-0.065,1.156-0.098,1.743-0.098c0.478,0,0.911,0.033,1.303,0.1
		c0.391,0.066,0.721,0.204,0.992,0.414c0.272,0.21,0.478,0.508,0.619,0.894C15.815,9.436,15.886,9.958,15.886,10.621z"/>
	<path fill="#834594" d="M103.33,52.724c-0.5,0.702-1.167,1.526-2.002,2.471c-0.836,0.944-1.775,1.845-2.817,2.7
		s-2.161,1.58-3.355,2.173s-2.389,0.889-3.583,0.889c-1.443,0-2.645-0.456-3.607-1.368c-0.964-0.914-1.796-2.24-2.496-3.982
		c-0.525,0.602-1.171,1.215-1.937,1.837c-0.768,0.623-1.605,1.188-2.512,1.694c-0.908,0.504-1.855,0.917-2.84,1.238
		c-0.985,0.323-1.97,0.484-2.955,0.484c-1.042,0-2.058-0.213-3.045-0.641c-0.988-0.428-1.862-1.04-2.622-1.84
		c-0.76-0.799-1.367-1.774-1.824-2.925c-0.457-1.149-0.685-2.446-0.685-3.894c0-1.621,0.23-3.287,0.689-4.996
		c0.458-1.709,1.167-3.559,2.129-5.551c0.961-1.99,1.993-3.71,3.096-5.16c1.103-1.449,2.31-2.715,3.62-3.797
		c1.311-1.081,2.693-1.942,4.145-2.58c1.453-0.639,2.932-0.958,4.438-0.958c0.503,0,0.896,0.098,1.181,0.296
		c0.284,0.197,0.519,0.422,0.705,0.675c0.184,0.252,0.365,0.499,0.539,0.74c0.175,0.241,0.394,0.417,0.656,0.527
		c0.262,0.11,0.53,0.181,0.803,0.214c0.272,0.033,0.552,0.049,0.835,0.049c0.241,0,0.485-0.005,0.737-0.016
		c0.251-0.011,0.496-0.017,0.737-0.017c0.328,0,0.633,0.034,0.917,0.1c0.284,0.066,0.536,0.208,0.753,0.428
		c0.217,0.22,0.385,0.527,0.506,0.921c0.119,0.395,0.179,0.933,0.179,1.612c0,1.038-0.109,2.189-0.326,3.455
		c-0.217,1.265-0.465,2.562-0.746,3.889c-0.281,1.326-0.6,2.84-0.959,4.539c-0.358,1.699-0.537,3.131-0.537,4.295
		c0,0.996,0.092,1.773,0.277,2.335s0.581,0.841,1.188,0.841c0.457,0,0.934-0.113,1.433-0.338c0.5-0.227,1.004-0.523,1.515-0.887
		c0.51-0.367,1.021-0.781,1.531-1.244c0.509-0.463,0.993-0.941,1.45-1.438c1.063-1.161,2.138-2.475,3.224-3.938L103.33,52.724z
		 M75.389,50.172c0,0.561,0.038,1.104,0.114,1.63c0.076,0.525,0.212,0.996,0.408,1.41c0.195,0.414,0.457,0.75,0.783,1.007
		c0.326,0.258,0.739,0.387,1.238,0.387c0.806,0,1.534-0.35,2.187-1.051c0.652-0.697,1.217-1.54,1.696-2.523
		c0.479-0.984,0.865-2.001,1.158-3.051c0.294-1.049,0.484-1.924,0.571-2.621l2.429-10.589c-0.891,0-1.759,0.221-2.604,0.662
		c-0.848,0.441-1.646,1.038-2.395,1.792c-0.749,0.753-1.438,1.614-2.068,2.582c-0.63,0.969-1.249,2.163-1.856,3.585
		c-0.608,1.422-1.038,2.669-1.287,3.744C75.514,48.213,75.389,49.225,75.389,50.172z"/>
	<path fill="#834594" d="M122.834,52.048c-0.782,0.717-4.059,3.29-5.22,4.104c-1.162,0.814-2.416,1.563-3.761,2.248
		c-1.347,0.684-2.72,1.253-4.12,1.71c-1.401,0.454-2.731,0.683-3.989,0.683c-1.13,0-2.08-0.156-2.85-0.472
		c-0.771-0.315-1.396-0.755-1.873-1.319c-0.478-0.564-0.819-1.254-1.026-2.068c-0.207-0.813-0.31-1.709-0.31-2.688
		c0-1.367,0.152-2.963,0.456-4.787c0.626-3.771,1.028-5.891,1.208-6.356c0.295-0.929,0.887-2.981,1.775-6.164
		c0.825-2.593,1.333-4.281,1.526-5.064c0.107-0.549,0.405-1.043,0.896-1.482c0.449-0.395,0.953-0.719,1.519-0.971
		c0.565-0.252,1.152-0.438,1.761-0.56c0.606-0.121,1.157-0.181,1.647-0.181c0.895,0,1.504,0.168,1.823,0.505
		c0.32,0.337,0.48,0.787,0.48,1.352c0,0.477-0.111,1.152-0.335,2.024c-0.222,0.873-0.477,1.867-0.762,2.982
		c-0.285,1.115-0.708,2.55-1.267,4.304c-0.56,1.753-0.941,3.248-1.148,4.484c-0.205,1.238-0.462,2.468-0.776,3.688
		c-0.312,1.223-0.467,2.332-0.467,3.33c0,0.977,0.107,1.752,0.325,2.328c0.217,0.574,0.662,0.863,1.335,0.863
		c0.781,0,1.649-0.271,2.604-0.814c0.957-0.542,1.922-1.199,2.899-1.971c0.978-0.771,1.933-1.568,2.866-2.395
		c0.934-0.824,3.542-3.182,3.542-3.182L122.834,52.048z M105.97,19.678c0-0.503,0.109-1.074,0.327-1.708
		c0.217-0.636,0.57-1.233,1.059-1.792c0.489-0.56,1.14-1.029,1.954-1.414c0.815-0.383,1.829-0.576,3.045-0.576
		c0.76,0,1.476,0.088,2.149,0.263c0.673,0.175,1.258,0.444,1.759,0.805c0.498,0.361,0.896,0.839,1.188,1.43
		c0.292,0.592,0.44,1.292,0.44,2.103c0,0.746-0.121,1.469-0.358,2.17c-0.239,0.702-0.619,1.327-1.14,1.874
		c-0.521,0.548-1.178,0.992-1.97,1.332c-0.792,0.34-1.742,0.509-2.85,0.509c-1.911,0-3.322-0.454-4.234-1.364
		C106.427,22.402,105.97,21.191,105.97,19.678z"/>
	<path fill="#834594" d="M146.453,53.498c-2.088,1.217-3.946,2.279-5.577,3.192c-1.63,0.911-3.082,1.672-4.353,2.28
		c-1.272,0.607-2.403,1.062-3.393,1.365c-0.99,0.307-1.887,0.457-2.69,0.457c-1.643,0-3.087-0.498-4.342-1.498
		c-1.252-0.998-2.3-2.437-3.141-4.314c-0.843-1.877-1.474-4.152-1.895-6.824c-0.422-2.67-0.632-5.676-0.632-9.02
		c0-1.303,0.054-2.692,0.161-4.169c0.108-1.476,0.259-2.942,0.453-4.396c-0.656-0.097-1.165-0.187-1.525-0.272
		c-0.36-0.084-0.742-0.169-1.146-0.254c-0.405-0.084-0.918-0.174-1.542-0.271c-0.622-0.097-1.524-0.218-2.704-0.363
		c-0.524-0.072-0.929-0.211-1.213-0.416c-0.284-0.206-0.491-0.447-0.624-0.725c-0.13-0.278-0.207-0.568-0.229-0.87
		c-0.021-0.303-0.032-0.562-0.032-0.781c0-0.342,0.213-0.603,0.638-0.783c0.426-0.18,0.972-0.314,1.637-0.405
		c0.666-0.09,1.396-0.141,2.193-0.152c0.797-0.01,1.561-0.005,2.292,0.016c0.729,0.022,1.385,0.039,1.964,0.049
		c0.578,0.011,0.977-0.005,1.194-0.048c0.585-2.923,1.327-5.754,2.228-8.493c0.899-2.739,1.907-5.173,3.023-7.307
		c1.115-2.132,2.335-3.843,3.656-5.13c1.322-1.289,2.709-1.934,4.162-1.934c0.934,0,1.787,0.261,2.558,0.781
		c0.771,0.521,1.428,1.214,1.973,2.083c0.542,0.868,0.961,1.882,1.255,3.042c0.293,1.161,0.439,2.37,0.439,3.627
		c0,1.041-0.152,2.141-0.455,3.297c-0.305,1.158-0.718,2.337-1.238,3.537c-0.521,1.201-1.136,2.417-1.842,3.648
		c-0.706,1.231-1.449,2.453-2.232,3.664c0.198-0.072,0.523-0.086,0.979-0.042c0.456,0.044,0.982,0.074,1.58,0.092
		c0.597,0.017,1.243,0.035,1.938,0.052c0.695,0.017,1.369,0.037,2.02,0.059c0.651,0.021,1.258,0.043,1.823,0.065
		c0.564,0.021,1.032,0.043,1.4,0.065c0.434,0.024,0.749,0.266,0.944,0.725s0.293,1.04,0.293,1.74c0,0.812-0.218,1.472-0.654,1.981
		c-0.434,0.51-0.911,0.764-1.434,0.764h-12.52c-0.632,0.869-1.27,1.72-1.913,2.557c-0.644,0.836-1.238,1.591-1.783,2.263
		c-0.087,1.347-0.163,2.67-0.227,3.975c-0.022,0.564-0.045,1.146-0.066,1.742c-0.022,0.598-0.043,1.189-0.065,1.775
		c-0.021,0.586-0.038,1.15-0.048,1.693c-0.012,0.543-0.017,1.042-0.017,1.498c0,1.172,0.109,2.16,0.326,2.963
		c0.218,0.805,0.535,1.461,0.95,1.971s0.921,0.879,1.52,1.107c0.6,0.229,1.27,0.342,2.011,0.342c0.456,0,1.026-0.107,1.711-0.325
		c0.685-0.216,1.434-0.515,2.25-0.896c0.815-0.38,1.674-0.831,2.576-1.352c0.902-0.521,1.793-1.091,2.673-1.709
		c0.881-0.619,1.724-1.271,2.527-1.955s2.185-1.854,2.185-1.854v8.09H146.453z M136.031,12.256c0-0.237-0.016-0.502-0.05-0.795
		c-0.033-0.292-0.103-0.567-0.211-0.827c-0.109-0.26-0.278-0.476-0.507-0.649c-0.229-0.173-0.55-0.26-0.964-0.26
		c-0.567,0-1.139,0.496-1.717,1.488c-0.578,0.991-1.133,2.258-1.667,3.798c-0.534,1.542-1.037,3.239-1.504,5.094
		c-0.468,1.854-0.899,3.654-1.292,5.4c0.327,0.032,0.654,0.06,0.98,0.084c0.327,0.024,0.665,0.052,1.014,0.085
		c0.653-1.094,1.335-2.279,2.044-3.555c0.708-1.276,1.346-2.531,1.913-3.765c0.567-1.233,1.035-2.387,1.406-3.459
		S136.031,12.943,136.031,12.256z"/>
	<path fill="#834594" d="M143.008,48.5c1.216-1.053,2.203-1.93,2.963-2.633c0.76-0.701,1.52-1.519,2.28-2.451
		c0.759-0.934,1.362-1.696,1.808-2.287c0.443-0.594,0.97-1.296,1.58-2.108c0.607-0.812,1.346-1.805,2.213-2.979
		c0.869-1.174,1.998-2.639,3.389-4.396c0.281-0.395,0.598-0.778,0.945-1.152c0.346-0.373,0.731-0.707,1.154-1.003
		c0.424-0.296,0.891-0.537,1.4-0.725c0.51-0.186,1.08-0.279,1.71-0.279c1.044,0,1.847,0.115,2.411,0.346s0.977,0.51,1.238,0.839
		c0.261,0.33,0.412,0.675,0.455,1.037c0.044,0.363,0.066,0.676,0.066,0.939c0,0.527-0.207,1.108-0.619,1.745
		c-0.414,0.637-0.871,1.251-1.367,1.843c-0.501,0.593-0.973,1.137-1.418,1.631c-0.446,0.494-0.7,0.861-0.767,1.103
		c0,0.679,0.05,1.3,0.149,1.86s0.231,1.109,0.398,1.645c0.166,0.538,0.338,1.109,0.514,1.712c0.178,0.604,0.348,1.302,0.51,2.091
		c0.164,0.791,0.186,1.877,0.066,3.26c-0.12,1.384-0.18,2.776-0.18,4.18c0.781-0.525,1.624-1.003,2.524-1.431
		c0.901-0.428,1.841-0.872,2.816-1.333c0.978-0.462,1.981-0.971,3.015-1.531c1.029-0.56,2.066-1.234,3.109-2.024l0.033,7.374
		c-1.348,1.004-2.904,1.947-4.674,2.828c-1.77,0.879-3.631,1.654-5.582,2.322c-1.952,0.67-3.922,1.198-5.909,1.586
		c-1.985,0.387-3.87,0.58-5.65,0.58c-1.281,0-2.474-0.113-3.582-0.342c-1.108-0.229-2.079-0.587-2.915-1.074
		c-0.836-0.488-1.514-1.127-2.035-1.916c-0.521-0.789-0.836-1.744-0.943-2.866c-0.305,0.066-0.603,0.108-0.896,0.132
		c-0.293,0.021-0.581,0.033-0.863,0.033c-0.348,0-0.674-0.012-0.977-0.031c-0.305-0.022-0.565-0.105-0.782-0.248
		c-0.216-0.142-0.39-0.373-0.521-0.691c-0.13-0.318-0.195-0.773-0.195-1.367c0-0.525,0.13-1.014,0.39-1.463
		c0.261-0.45,0.564-0.85,0.913-1.201c0.347-0.353,0.693-0.658,1.041-0.922C142.573,48.865,142.834,48.655,143.008,48.5z
		 M147.072,52.715c0.261,0,0.549,0.165,0.863,0.495c0.314,0.327,0.678,0.69,1.09,1.086s0.891,0.757,1.434,1.087
		c0.542,0.328,1.161,0.494,1.855,0.494c0.848,0,1.548-0.144,2.102-0.428c0.555-0.285,0.994-0.665,1.319-1.137
		c0.325-0.473,0.554-1.02,0.685-1.645c0.131-0.626,0.195-1.279,0.195-1.96c0-0.593-0.039-1.194-0.113-1.81
		c-0.077-0.615-0.066-1.379,0.031-2.289c0.099-0.91,0.076-1.611-0.064-2.105s-0.265-0.916-0.375-1.269L147.072,52.715z"/>
	<path fill="#834594" d="M199.083,53.498c-2.087,1.217-3.946,2.279-5.577,3.192c-1.63,0.911-3.082,1.672-4.352,2.28
		c-1.273,0.607-2.404,1.062-3.393,1.365c-0.99,0.307-1.887,0.457-2.69,0.457c-1.642,0-3.087-0.498-4.341-1.498
		c-1.252-0.998-2.301-2.437-3.142-4.314c-0.843-1.877-1.474-4.152-1.895-6.824c-0.423-2.67-0.632-5.676-0.632-9.02
		c0-1.303,0.053-2.692,0.161-4.169c0.107-1.476,0.259-2.942,0.452-4.396c-0.656-0.097-1.165-0.187-1.524-0.272
		c-0.36-0.084-0.743-0.169-1.147-0.254c-0.406-0.084-0.918-0.174-1.541-0.271c-0.623-0.098-1.525-0.218-2.705-0.363
		c-0.523-0.072-0.93-0.211-1.213-0.416c-0.283-0.206-0.49-0.447-0.623-0.725c-0.131-0.278-0.207-0.568-0.23-0.87
		c-0.021-0.303-0.031-0.562-0.031-0.781c0-0.342,0.213-0.603,0.637-0.783c0.428-0.18,0.973-0.314,1.639-0.405
		c0.664-0.09,1.396-0.141,2.193-0.152c0.797-0.01,1.561-0.005,2.291,0.016c0.73,0.022,1.386,0.039,1.965,0.049
		c0.578,0.011,0.976-0.005,1.194-0.048c0.586-2.923,1.327-5.754,2.228-8.493c0.898-2.739,1.907-5.173,3.022-7.307
		c1.116-2.132,2.336-3.843,3.657-5.13c1.323-1.289,2.71-1.934,4.162-1.934c0.935,0,1.786,0.261,2.558,0.781
		c0.772,0.521,1.429,1.214,1.973,2.083c0.542,0.868,0.961,1.882,1.256,3.042c0.292,1.161,0.438,2.37,0.438,3.627
		c0,1.041-0.152,2.141-0.455,3.297c-0.305,1.158-0.717,2.337-1.239,3.537c-0.521,1.201-1.135,2.417-1.841,3.648
		c-0.705,1.231-1.449,2.453-2.231,3.664c0.198-0.072,0.522-0.086,0.979-0.042c0.455,0.044,0.982,0.074,1.58,0.092
		c0.597,0.017,1.243,0.035,1.938,0.052c0.693,0.017,1.368,0.037,2.019,0.059c0.652,0.021,1.26,0.043,1.824,0.065
		s1.031,0.043,1.399,0.065c0.435,0.024,0.75,0.266,0.944,0.725c0.195,0.459,0.293,1.04,0.293,1.74c0,0.812-0.218,1.472-0.652,1.981
		c-0.434,0.51-0.913,0.764-1.435,0.764h-12.521c-0.632,0.869-1.27,1.72-1.913,2.557c-0.644,0.836-1.238,1.591-1.784,2.263
		c-0.087,1.347-0.162,2.67-0.226,3.975c-0.023,0.564-0.045,1.146-0.066,1.742c-0.022,0.598-0.044,1.189-0.066,1.775
		c-0.021,0.586-0.038,1.15-0.047,1.693c-0.013,0.543-0.018,1.042-0.018,1.498c0,1.172,0.109,2.16,0.326,2.963
		c0.219,0.805,0.534,1.461,0.949,1.971s0.921,0.879,1.52,1.107c0.6,0.229,1.27,0.342,2.012,0.342c0.455,0,1.027-0.107,1.71-0.325
		c0.685-0.216,1.434-0.515,2.25-0.896c0.815-0.38,1.674-0.831,2.575-1.352c0.902-0.521,1.793-1.091,2.674-1.709
		c0.881-0.619,1.722-1.271,2.527-1.955c0.803-0.684,1.531-1.383,2.184-2.101L199.083,53.498L199.083,53.498z M188.662,12.256
		c0-0.237-0.017-0.502-0.051-0.795c-0.032-0.292-0.102-0.567-0.211-0.827c-0.109-0.26-0.279-0.476-0.508-0.649
		s-0.549-0.26-0.964-0.26c-0.567,0-1.14,0.496-1.716,1.488c-0.578,0.991-1.133,2.258-1.668,3.798
		c-0.535,1.542-1.037,3.239-1.504,5.094c-0.469,1.854-0.9,3.654-1.293,5.4c0.327,0.032,0.655,0.06,0.98,0.084
		c0.328,0.024,0.665,0.052,1.014,0.085c0.654-1.094,1.336-2.279,2.044-3.555s1.347-2.531,1.913-3.765s1.035-2.387,1.405-3.459
		C188.476,13.823,188.662,12.943,188.662,12.256z"/>
	<path fill="#834594" d="M230.77,52.724c-0.5,0.702-1.168,1.526-2.003,2.471c-0.838,0.944-1.774,1.845-2.817,2.7
		c-1.042,0.855-2.162,1.58-3.355,2.173s-2.388,0.889-3.582,0.889c-1.443,0-2.645-0.456-3.607-1.368
		c-0.964-0.914-1.795-2.24-2.495-3.982c-0.526,0.602-1.172,1.215-1.938,1.837c-0.767,0.623-1.604,1.188-2.511,1.694
		c-0.908,0.504-1.856,0.917-2.84,1.238c-0.985,0.323-1.97,0.484-2.955,0.484c-1.041,0-2.057-0.213-3.045-0.641
		s-1.861-1.04-2.623-1.84c-0.76-0.799-1.365-1.774-1.823-2.925c-0.456-1.149-0.686-2.446-0.686-3.894
		c0-1.621,0.229-3.287,0.69-4.996c0.457-1.709,1.168-3.559,2.129-5.551c0.961-1.99,1.993-3.71,3.096-5.16
		c1.104-1.449,2.311-2.715,3.621-3.797c1.31-1.081,2.691-1.942,4.144-2.58c1.453-0.639,2.933-0.958,4.439-0.958
		c0.503,0,0.896,0.098,1.18,0.296c0.284,0.197,0.519,0.422,0.705,0.675c0.185,0.252,0.364,0.499,0.538,0.74
		c0.176,0.241,0.394,0.417,0.657,0.527c0.262,0.11,0.53,0.181,0.802,0.214c0.273,0.033,0.553,0.049,0.837,0.049
		c0.24,0,0.485-0.005,0.737-0.016c0.251-0.011,0.496-0.017,0.736-0.017c0.328,0,0.633,0.034,0.918,0.1
		c0.283,0.066,0.535,0.208,0.752,0.428c0.218,0.22,0.386,0.527,0.507,0.921c0.118,0.395,0.179,0.933,0.179,1.612
		c0,1.038-0.109,2.189-0.326,3.455s-0.465,2.562-0.746,3.889c-0.28,1.326-0.6,2.84-0.959,4.539
		c-0.357,1.699-0.537,3.131-0.537,4.295c0,0.996,0.093,1.773,0.277,2.335s0.581,0.841,1.189,0.841c0.455,0,0.934-0.113,1.432-0.338
		c0.5-0.227,1.004-0.523,1.516-0.887c0.51-0.367,1.02-0.781,1.53-1.244c0.509-0.463,0.993-0.941,1.449-1.438
		c1.062-1.161,2.14-2.475,3.226-3.938L230.77,52.724z M202.828,50.172c0,0.561,0.037,1.104,0.113,1.63
		c0.077,0.525,0.213,0.996,0.41,1.41c0.195,0.414,0.456,0.75,0.782,1.007c0.327,0.258,0.74,0.387,1.239,0.387
		c0.805,0,1.534-0.35,2.187-1.051c0.653-0.697,1.218-1.54,1.696-2.523c0.479-0.984,0.865-2.001,1.158-3.051
		c0.293-1.049,0.483-1.924,0.57-2.621l2.429-10.589c-0.89,0-1.759,0.221-2.604,0.662c-0.847,0.441-1.645,1.038-2.395,1.792
		c-0.749,0.753-1.438,1.614-2.068,2.582c-0.63,0.969-1.248,2.163-1.855,3.585c-0.609,1.422-1.037,2.669-1.287,3.744
		C202.952,48.213,202.828,49.225,202.828,50.172z"/>
	<path fill="#834594" d="M226.213,62.02c0-0.108,0.026-0.769,0.081-1.98c0.053-1.211,0.171-2.825,0.353-4.838
		c0.182-2.016,0.392-4.344,0.629-6.986c0.238-2.641,0.572-5.428,1.004-8.356c0.434-2.93,0.943-5.934,1.531-9.014
		c0.588-3.081,1.285-6.08,2.094-8.998c0.811-2.919,1.736-5.669,2.778-8.253c1.044-2.583,2.212-4.841,3.509-6.776
		c1.299-1.935,2.744-3.464,4.342-4.588c1.597-1.124,3.348-1.687,5.256-1.687c0.735,0,1.51,0.127,2.322,0.381
		c0.813,0.253,1.555,0.666,2.227,1.237c0.671,0.571,1.229,1.327,1.673,2.268c0.445,0.941,0.666,2.1,0.666,3.472
		c0,1.279-0.206,2.748-0.62,4.405c-0.414,1.658-0.995,3.43-1.742,5.315c-0.75,1.886-1.631,3.847-2.648,5.884
		c-1.017,2.037-2.129,4.069-3.334,6.095c-1.207,2.027-2.475,4.021-3.805,5.981c-1.33,1.961-2.686,3.798-4.071,5.51l-0.063,0.521
		c0.456-0.189,3.819,0,4.053,0c2.148,0,4.049-0.254,5.698-0.764c1.65-0.508,3.04-1.077,4.169-1.706
		c1.324-0.716,2.475-1.55,3.453-2.503l-0.717,7.936c-1.434,0.79-2.932,1.404-4.495,1.843c-1.563,0.439-3.007,0.769-4.332,0.988
		c-1.542,0.24-3.091,0.395-4.651,0.461c0.84,1.43,1.595,2.914,2.271,4.452c0.581,1.321,1.11,2.802,1.588,4.438
		c0.476,1.635,0.716,3.288,0.716,4.956c0,0.194-0.029,0.606-0.086,1.234c-0.059,0.629-0.158,1.398-0.293,2.309
		c-0.137,0.908-0.33,1.918-0.58,3.023c-0.25,1.104-0.573,2.221-0.971,3.348c-0.398,1.126-0.881,2.216-1.449,3.268
		c-0.568,1.051-1.234,1.982-1.995,2.795s-1.637,1.467-2.626,1.967c-0.988,0.498-2.107,0.747-3.359,0.747
		c-1.186,0-2.222-0.271-3.104-0.812c-0.885-0.542-1.64-1.273-2.266-2.191c-0.626-0.922-1.149-1.994-1.567-3.216
		c-0.422-1.224-0.752-2.517-0.988-3.88c-0.236-1.365-0.404-2.757-0.502-4.174C226.261,64.709,226.213,63.341,226.213,62.02z
		 M234.826,44.902c-0.088,0-0.188,0.248-0.296,0.744c-0.11,0.496-0.194,1.12-0.255,1.871c-0.061,0.748-0.146,1.816-0.256,3.203
		c-0.11,1.387-0.201,2.521-0.275,3.406c-0.072,0.885-0.129,1.725-0.172,2.516c-0.044,0.795-0.065,1.417-0.065,1.874
		c0,3.191,0.061,5.731,0.181,7.621c0.119,1.889,0.272,3.321,0.459,4.299c0.185,0.978,0.393,1.612,0.623,1.905
		c0.229,0.293,0.463,0.439,0.705,0.439c0.742,0,1.337-0.336,1.785-1.009c0.447-0.673,0.785-1.526,1.016-2.558
		c0.229-1.03,0.383-2.16,0.459-3.387s0.115-2.404,0.115-3.533c0-0.76-0.023-1.695-0.068-2.801c-0.042-1.107-0.109-2.304-0.196-3.587
		c-0.089-1.283-0.269-2.735-0.544-4.353c-0.275-1.62-0.659-2.838-1.154-3.653c-0.494-0.813-0.896-1.518-1.203-2.11
		C235.375,45.198,235.091,44.902,234.826,44.902z M243.069,10.858c-1.278,2.883-2.329,5.624-3.15,8.225
		c-0.754,2.384-1.319,4.497-1.696,6.339c-0.377,1.842-0.646,3.462-0.805,4.86c-0.16,1.398-0.318,2.692-0.471,3.884
		c1.393-2.492,2.833-4.919,4.318-7.281c1.482-2.362,2.781-4.577,3.896-6.647c1.114-2.07,2.065-4.069,2.857-5.998
		c0.789-1.929,1.186-3.305,1.186-4.128c0-1.149-0.16-1.988-0.483-2.52c-0.323-0.531-0.86-0.797-1.611-0.797
		c-1.187,0-1.986,0.26-2.398,0.781C244.395,8.009,243.846,9.104,243.069,10.858z"/>
	<path fill="#834594" d="M251.289,62.056c0-0.108,0.027-0.77,0.082-1.98c0.053-1.212,0.17-2.826,0.353-4.839
		c0.183-2.015,0.391-4.342,0.63-6.984c0.236-2.643,0.571-5.43,1.003-8.358c0.434-2.929,0.943-5.934,1.53-9.014
		c0.588-3.081,1.285-6.08,2.096-8.999c0.809-2.917,1.734-5.668,2.777-8.252c1.043-2.583,2.212-4.842,3.51-6.776
		c1.297-1.935,2.744-3.464,4.342-4.588c1.596-1.124,3.346-1.687,5.254-1.687c0.736,0,1.512,0.127,2.323,0.381
		c0.813,0.254,1.554,0.666,2.226,1.237c0.672,0.571,1.229,1.327,1.674,2.269c0.444,0.94,0.666,2.099,0.666,3.472
		c0,1.278-0.207,2.748-0.621,4.405c-0.414,1.658-0.995,3.43-1.742,5.315c-0.748,1.885-1.631,3.847-2.648,5.884
		c-1.017,2.037-2.129,4.068-3.334,6.095c-1.207,2.026-2.475,4.021-3.805,5.982s-2.686,3.798-4.071,5.51l-0.065,0.521
		c0.458-0.189,3.821,0,4.055,0c2.148,0,4.049-0.255,5.698-0.764c1.65-0.509,3.04-1.078,4.169-1.707
		c1.324-0.716,1.892,0.404,2.533,1.188c0.642,0.783,0.273,2.962-0.428,4.132c-0.701,1.168-2.301,1.517-3.863,1.955
		c-1.562,0.439-3.008,0.769-4.332,0.987c-1.541,0.241-3.092,0.396-4.651,0.461c0.839,1.43,1.595,2.915,2.271,4.452
		c0.581,1.322,1.11,2.802,1.588,4.438c0.477,1.636,0.715,3.287,0.715,4.957c0,0.193-0.029,0.605-0.086,1.234
		c-0.059,0.628-0.156,1.396-0.293,2.307s-0.33,1.92-0.58,3.024c-0.25,1.105-0.573,2.221-0.971,3.349
		c-0.398,1.125-0.88,2.216-1.449,3.267c-0.568,1.05-1.234,1.982-1.995,2.795c-0.761,0.813-1.637,1.468-2.626,1.968
		c-0.988,0.497-2.107,0.746-3.358,0.746c-1.186,0-2.222-0.27-3.105-0.811c-0.885-0.542-1.64-1.273-2.266-2.193
		s-1.149-1.992-1.567-3.215c-0.422-1.225-0.752-2.517-0.988-3.879c-0.236-1.367-0.404-2.758-0.502-4.175
		C251.338,64.745,251.289,63.377,251.289,62.056z M259.904,44.938c-0.089,0-0.188,0.248-0.297,0.744s-0.195,1.119-0.254,1.87
		c-0.061,0.749-0.146,1.817-0.257,3.204c-0.11,1.386-0.201,2.52-0.274,3.405c-0.072,0.886-0.129,1.726-0.172,2.517
		c-0.045,0.794-0.066,1.418-0.066,1.873c0,3.191,0.061,5.732,0.182,7.621c0.119,1.889,0.272,3.322,0.459,4.3
		c0.185,0.977,0.393,1.611,0.622,1.905c0.229,0.293,0.464,0.44,0.705,0.44c0.742,0,1.337-0.337,1.785-1.01
		c0.447-0.673,0.786-1.525,1.016-2.558c0.229-1.031,0.384-2.16,0.459-3.387c0.076-1.228,0.115-2.405,0.115-3.533
		c0-0.761-0.022-1.695-0.067-2.801c-0.043-1.107-0.109-2.303-0.197-3.588c-0.088-1.283-0.269-2.734-0.544-4.352
		c-0.274-1.62-0.659-2.838-1.153-3.652s-0.896-1.52-1.203-2.111C260.452,45.234,260.168,44.938,259.904,44.938z M268.146,10.895
		c-1.279,2.882-2.33,5.624-3.15,8.225c-0.754,2.384-1.319,4.497-1.695,6.339c-0.379,1.842-0.646,3.462-0.807,4.86
		c-0.159,1.398-0.316,2.693-0.469,3.885c1.393-2.491,2.832-4.919,4.316-7.282c1.483-2.362,2.782-4.578,3.897-6.647
		c1.114-2.07,2.065-4.069,2.856-5.998c0.79-1.929,1.187-3.305,1.187-4.129c0-1.149-0.161-1.988-0.483-2.52
		c-0.322-0.53-0.859-0.796-1.611-0.796c-1.188,0-1.986,0.259-2.398,0.78C269.471,8.044,268.922,9.139,268.146,10.895z"/>
</g>
</svg>
